:SAMPLES-PER-SECOND 30
:FULLY-SPECIFIED
:DEGREES
199
root  -56.6909 34.9023 28.2046 -171.754 47.2447 178.46
RightUpLeg  -9.6558 -11.8782 -6.77051
RightLeg  9.86467 0.834562 0.0913885
RightFoot  3.48739 0.00718254 0.201157
RightToes  -28.5622 -0.134147 -0.24185
Spine  -2.30871 1.56205 -3.28648
Spine1  -4.72194 3.07351 -5.88519
HEad  -67.271 -9.93117 4.21365
LeftShoulder1  -1.94126e-019 -3.10601e-018 -2.51263e-017
LeftArm  -7.5949 16.3194 -71.8617
LeftForeArm  30.5341 -25.8361 -4.3288
LeftHand  -0.320351 -0.277258 6.64226
RightShoulder  -4.96962e-017 0 -2.36833e-017
RightArm  -4.27704 -17.9086 82.7193
RightForeArm  55.6079 27.6296 3.09446
RightHand  -0.495754 3.83799 -6.49318
LeftUpLeg  -7.17031 -4.82938 -4.80026
LeftLeg  1.87892 15.5 -0.482205
LeftFoot  4.66144 -0.0536948 1.45175
LeftToes  -8.84537 1.48321e-006 1.01846e-007
200
root  -56.6286 34.9159 28.2949 -171.486 47.1917 178.622
RightUpLeg  -9.53167 -12.7411 -6.42992
RightLeg  9.23601 1.60969 0.157538
RightFoot  3.81707 0.00331906 0.252536
RightToes  -28.705 -0.133769 -0.241445
Spine  -2.31027 1.612 -3.15838
Spine1  -4.72211 3.18236 -5.63483
HEad  -67.3134 -9.76567 4.35164
LeftShoulder1  -1.94126e-019 -3.10601e-018 -2.51263e-017
LeftArm  -7.46793 16.1809 -72.2572
LeftForeArm  29.8759 -27.1257 -4.52587
LeftHand  -0.324766 -0.294558 6.71429
RightShoulder  -4.96962e-017 0 -2.36833e-017
RightArm  -4.39188 -17.8037 82.5576
RightForeArm  55.7671 27.0089 2.96018
RightHand  -0.506706 3.72168 -6.70774
LeftUpLeg  -7.07188 -4.45705 -4.50774
LeftLeg  1.30213 15.0608 -0.618857
LeftFoot  5.04065 -0.0596011 1.51557
LeftToes  -9.33548 1.48321e-006 1.01846e-007
201
root  -56.5649 34.9288 28.3918 -171.328 47.2756 178.674
RightUpLeg  -9.61044 -12.8159 -6.15252
RightLeg  9.01229 1.69093 0.158788
RightFoot  3.90016 0.0023858 0.259276
RightToes  -28.1539 -0.130314 -0.237714
Spine  -2.26448 1.69684 -2.9624
Spine1  -4.6209 3.35424 -5.23899
HEad  -67.647 -9.4951 4.28685
LeftShoulder1  -1.94126e-019 -3.10601e-018 -2.51263e-017
LeftArm  -7.08942 16.3255 -72.9438
LeftForeArm  28.9105 -27.8954 -4.60741
LeftHand  -0.32225 -0.212755 6.75233
RightShoulder  -4.96962e-017 0 -2.36833e-017
RightArm  -4.94147 -17.5334 82.1475
RightForeArm  56.1371 26.2745 2.79842
RightHand  -0.4863 3.4563 -6.62444
LeftUpLeg  -6.83183 -3.93711 -4.30117
LeftLeg  0.489348 14.6753 -0.809633
LeftFoot  5.48903 -0.068838 1.59748
LeftToes  -9.62424 1.48321e-006 1.01846e-007
202
root  -56.4922 34.9303 28.4858 -171.207 47.2125 178.762
RightUpLeg  -9.7113 -12.2554 -5.88622
RightLeg  9.09992 1.04672 0.10031
RightFoot  3.80118 0.00474746 0.21775
RightToes  -27.5221 -0.127236 -0.234381
Spine  -2.19673 1.60827 -2.94252
Spine1  -4.48797 3.18963 -5.20208
HEad  -67.8624 -9.00763 4.80131
LeftShoulder1  -1.94126e-019 -3.10601e-018 -2.51263e-017
LeftArm  -6.52894 16.91 -73.0736
LeftForeArm  28.2523 -29.132 -4.83557
LeftHand  -0.325498 -0.241688 6.78761
RightShoulder  -4.96962e-017 0 -2.36833e-017
RightArm  -5.60853 -17.0651 82.216
RightForeArm  56.3752 24.6534 2.46269
RightHand  -0.518774 3.75188 -6.8403
LeftUpLeg  -6.70192 -3.66635 -4.05089
LeftLeg  0.0643239 14.3165 -0.895651
LeftFoot  5.84786 -0.0755304 1.65272
LeftToes  -10.5711 1.48321e-006 1.01846e-007
203
root  -56.4203 34.9328 28.5633 -171.321 47.1296 178.632
RightUpLeg  -9.72372 -11.4586 -5.82655
RightLeg  9.24135 0.199162 0.0204433
RightFoot  3.64745 0.00789166 0.16544
RightToes  -27.3434 -0.126062 -0.233084
Spine  -2.15274 1.59237 -2.68948
Spine1  -4.38229 3.14916 -4.68023
HEad  -67.781 -8.82116 4.37769
LeftShoulder1  -1.94126e-019 -3.10601e-018 -2.51263e-017
LeftArm  -5.65038 17.5491 -74.0508
LeftForeArm  27.8861 -28.4754 -4.6525
LeftHand  -0.31427 -0.249968 6.54602
RightShoulder  -4.96962e-017 0 -2.36833e-017
RightArm  -6.69492 -16.9784 81.4907
RightForeArm  56.4342 24.0974 2.35549
RightHand  -0.486817 3.37221 -6.68927
LeftUpLeg  -6.70431 -3.26918 -3.97286
LeftLeg  0.0960872 13.8545 -0.859695
LeftFoot  5.94674 -0.0761397 1.62735
LeftToes  -11.012 1.48321e-006 1.01846e-007
